<?xml version="1.0" standalone="no"?>
<!DOCTYPE svg PUBLIC "-//W3C//DTD SVG 20010904//EN"
 "http://www.w3.org/TR/2001/REC-SVG-20010904/DTD/svg10.dtd">
<svg version="1.0" xmlns="http://www.w3.org/2000/svg"
 width="700.000000pt" height="700.000000pt" viewBox="0 0 700.000000 700.000000"
 preserveAspectRatio="xMidYMid meet">
<metadata>
Created by potrace 1.14, written by Peter Selinger 2001-2017
</metadata>
<g transform="translate(0.000000,700.000000) scale(0.100000,-0.100000)"
fill="#000000" stroke="none">
<path d="M1422 4728 l3 -543 130 -12 c72 -6 142 -12 158 -12 l27 -1 0 344 0
345 98 -34 c507 -173 1047 -440 1367 -677 61 -44 155 -127 211 -184 l100 -103
85 85 c106 108 186 173 330 267 312 205 789 431 1199 568 l145 49 3 -330 c1
-182 6 -330 10 -330 3 0 75 14 159 32 l153 32 0 508 c0 325 -4 508 -10 508
-30 0 -351 -90 -514 -144 -573 -190 -1193 -494 -1499 -734 -42 -33 -62 -43
-72 -37 -7 6 -44 35 -81 65 -315 254 -905 556 -1439 736 -195 66 -487 144
-537 144 l-28 0 2 -542z"/>
<path d="M5695 4083 c-180 -17 -455 -78 -668 -147 -534 -175 -1023 -455 -1422
-814 l-90 -80 -90 86 c-261 252 -537 442 -887 611 -447 216 -854 318 -1350
337 l-188 7 0 -1027 0 -1026 165 0 165 0 0 855 0 855 47 -6 c242 -29 415 -66
614 -130 416 -134 806 -355 1119 -636 104 -93 184 -180 309 -335 45 -57 84
-103 86 -103 2 0 48 51 102 112 278 319 591 557 1002 762 351 176 741 303
1044 340 l47 6 0 -880 0 -880 165 0 165 0 0 1050 0 1050 -147 -2 c-82 -1 -166
-3 -188 -5z"/>
</g>
</svg>
